<svg width="125" height="88" viewBox="0 0 125 88" fill="none" xmlns="http://www.w3.org/2000/svg">
<path d="M118.75 0.25H6.25C2.79883 0.25 0 3.04883 0 6.5V81.5C0 84.9512 2.79883 87.75 6.25 87.75H118.75C122.201 87.75 125 84.9512 125 81.5V6.5C125 3.04883 122.201 0.25 118.75 0.25ZM34.375 58.0391V61.1875C34.375 62.0508 33.6758 62.75 32.8125 62.75H29.6875C28.8242 62.75 28.125 62.0508 28.125 61.1875V58.0059C25.9199 57.8926 23.7754 57.123 21.998 55.7891C21.2363 55.2168 21.1973 54.0762 21.8867 53.418L24.1816 51.2285C24.7227 50.7129 25.5273 50.6895 26.1602 51.0859C26.916 51.5586 27.7734 51.8125 28.6641 51.8125H34.1543C35.4238 51.8125 36.459 50.6562 36.459 49.2363C36.459 48.0742 35.7539 47.0508 34.7461 46.75L25.957 44.1133C22.3262 43.0234 19.7891 39.5391 19.7891 35.6387C19.7891 30.8496 23.5098 26.959 28.123 26.8359V23.6875C28.123 22.8242 28.8223 22.125 29.6855 22.125H32.8105C33.6738 22.125 34.373 22.8242 34.373 23.6875V26.8691C36.5781 26.9824 38.7227 27.75 40.5 29.0859C41.2617 29.6582 41.3008 30.7988 40.6113 31.457L38.3164 33.6465C37.7754 34.1621 36.9707 34.1855 36.3379 33.7891C35.582 33.3145 34.7246 33.0625 33.834 33.0625H28.3438C27.0742 33.0625 26.0391 34.2188 26.0391 35.6387C26.0391 36.8008 26.7441 37.8242 27.752 38.125L36.541 40.7617C40.1719 41.8516 42.709 45.3359 42.709 49.2363C42.709 54.0273 38.9883 57.916 34.375 58.0391ZM81.25 54.9375C81.25 55.8008 80.5508 56.5 79.6875 56.5H57.8125C56.9492 56.5 56.25 55.8008 56.25 54.9375V51.8125C56.25 50.9492 56.9492 50.25 57.8125 50.25H79.6875C80.5508 50.25 81.25 50.9492 81.25 51.8125V54.9375ZM112.5 54.9375C112.5 55.8008 111.801 56.5 110.938 56.5H95.3125C94.4492 56.5 93.75 55.8008 93.75 54.9375V51.8125C93.75 50.9492 94.4492 50.25 95.3125 50.25H110.938C111.801 50.25 112.5 50.9492 112.5 51.8125V54.9375ZM112.5 36.1875C112.5 37.0508 111.801 37.75 110.938 37.75H57.8125C56.9492 37.75 56.25 37.0508 56.25 36.1875V33.0625C56.25 32.1992 56.9492 31.5 57.8125 31.5H110.938C111.801 31.5 112.5 32.1992 112.5 33.0625V36.1875Z" fill="#2CD93D"/>
</svg>
