<svg width="132" height="132" viewBox="0 0 132 132" fill="none" xmlns="http://www.w3.org/2000/svg">
<path d="M111.457 19.5527C98.9385 7.36523 82.3711 0.375 66 0.375C49.6289 0.375 33.0615 7.36523 20.543 19.5527C7.53808 32.2119 0.375 48.7148 0.375 66C0.375 73.8135 2.93848 83.8975 10.0078 102.782C17.0771 121.667 31.1367 129.574 37.0752 130.866C38.7773 131.238 40.7725 131.625 42.5625 131.625C45.647 131.628 48.6779 130.819 51.3516 129.281L55.4531 126.938C59.8682 124.354 61.1572 118.696 58.6172 114.237L33.1523 69.5391C32.5456 68.4695 31.7326 67.5309 30.7605 66.7778C29.7884 66.0246 28.6766 65.4718 27.4894 65.1513C26.3021 64.8309 25.0631 64.7492 23.8441 64.9109C22.6251 65.0727 21.4503 65.4748 20.3877 66.0938L16.377 68.4375C14.8355 69.3405 13.4503 70.4872 12.2754 71.833C12.1296 72.0041 11.9376 72.1297 11.7223 72.1947C11.5071 72.2597 11.2777 72.2615 11.0615 72.1997C10.8453 72.1379 10.6515 72.0153 10.5031 71.8464C10.3547 71.6774 10.258 71.4694 10.2246 71.2471C9.92931 69.5132 9.77061 67.7588 9.75 66C9.75 51.2607 15.9023 37.1484 27.082 26.2705C37.875 15.7705 52.0518 9.75 66 9.75C79.9482 9.75 94.125 15.7705 104.918 26.2705C116.098 37.1484 122.25 51.2607 122.25 66C122.224 67.7592 122.059 69.5136 121.758 71.2471C121.724 71.4694 121.628 71.6774 121.479 71.8464C121.331 72.0153 121.137 72.1379 120.921 72.1997C120.705 72.2615 120.475 72.2597 120.26 72.1947C120.045 72.1297 119.853 72.0041 119.707 71.833C118.532 70.4872 117.147 69.3405 115.605 68.4375L111.595 66.0938C110.532 65.4748 109.357 65.0727 108.138 64.9109C106.919 64.7492 105.68 64.8309 104.493 65.1513C103.306 65.4718 102.194 66.0246 101.222 66.7778C100.25 67.5309 99.4369 68.4695 98.8301 69.5391L73.3828 114.237C70.8428 118.696 72.1318 124.354 76.5469 126.938L80.6484 129.281C83.3221 130.819 86.353 131.628 89.4375 131.625C91.2275 131.625 93.2227 131.238 94.9248 130.866C100.863 129.574 114.926 121.664 121.992 102.782C129.059 83.9004 131.625 73.8135 131.625 66C131.625 48.7148 124.462 32.2119 111.457 19.5527Z" fill="#50362F"/>
</svg>
